<svg width="93px" height="50px" viewBox="0 0 93 50" version="1.1" xmlns="http://www.w3.org/2000/svg" xmlns:xlink="http://www.w3.org/1999/xlink">
    <title>23G-landscape</title>
    <defs>
        <polygon id="path-1" points="0 0.0273026316 49.9726974 0.0273026316 49.9726974 49.9999836 0 49.9999836"></polygon>
    </defs>
    <g id="Website" stroke="none" stroke-width="1" fill="none" fill-rule="evenodd">
        <g id="Over-ons" transform="translate(-85.000000, -46.000000)">
            <g id="23G-landscape" transform="translate(85.000000, 46.000000)">
                <g id="Group-4">
                    <g id="Group-3">
                        <mask id="mask-2" fill="white">
                            <use xlink:href="#path-1"></use>
                        </mask>
                        <g id="Clip-2"></g>
                        <path d="M24.9863487,0.0272861842 C11.1861842,0.0272861842 0,11.2136349 0,25.0136349 C0,38.8128125 11.1861842,49.9999836 24.9863487,49.9999836 C38.7858553,49.9999836 49.9726974,38.8128125 49.9726974,25.0136349 C49.9726974,11.2136349 38.7858553,0.0272861842 24.9863487,0.0272861842" id="Fill-1" fill="#E61728" mask="url(#mask-2)"></path>
                    </g>
                    <g id="Group" transform="translate(15.000000, 19.000000)" fill="#FEFEFE">
                        <path d="M12.3021095,0.0661714105 C11.748681,-0.139124738 11.1434106,0.149556919 10.9442908,0.706887164 L7.06372666,11.556078 C6.86443853,12.1072443 7.14805382,12.7306665 7.69845263,12.9337368 C7.81930472,12.9780835 7.94318654,13 8.06504854,13 C8.49745666,13 8.89956759,12.7280982 9.05593472,12.2926786 L12.9373404,1.44451503 C13.1341038,0.892835135 12.8525083,0.269412885 12.3021095,0.0661714105" id="Fill-12"></path>
                        <path d="M19.3021095,0.0661714105 C18.748681,-0.139124738 18.1434106,0.149556919 17.9442908,0.706887164 L14.0637267,11.556078 C13.8644385,12.1072443 14.1480538,12.7306665 14.6984526,12.9337368 C14.8193047,12.9780835 14.9431865,13 15.0650485,13 C15.4974567,13 15.8995676,12.7280982 16.0559347,12.2926786 L19.9373404,1.44451503 C20.1341038,0.892835135 19.8525083,0.269412885 19.3021095,0.0661714105" id="Fill-12"></path>
                        <path d="M5.30210949,0.0661714105 C4.74868096,-0.139124738 4.14341058,0.149556919 3.94429077,0.706887164 L0.0637266601,11.556078 C-0.135561473,12.1072443 0.148053818,12.7306665 0.69845263,12.9337368 C0.819304724,12.9780835 0.943186537,13 1.06504854,13 C1.49745666,13 1.89956759,12.7280982 2.05593472,12.2926786 L5.93734041,1.44451503 C6.13410378,0.892835135 5.8525083,0.269412885 5.30210949,0.0661714105" id="Fill-12"></path>
                    </g>
                </g>
                <path d="M60.4685864,20.1634121 C59.6633619,20.9379925 59.2344324,21.967112 59.1863095,23.251456 L61.677175,23.251456 C61.7010694,22.6659815 61.8883814,22.166838 62.2344324,21.7541966 C62.5816531,21.3415553 63.0536928,21.135149 63.6483792,21.135149 C64.1687089,21.135149 64.6068286,21.3131209 64.9593962,21.6694073 C65.3122981,22.0241521 65.4889161,22.4881809 65.4889161,23.0609798 C65.4889161,23.6834532 65.247967,24.3626242 64.7655676,25.1005481 C64.5409937,25.4431312 63.8345216,26.3254539 62.6441462,27.7495718 L59,32 L68,32 L68,29.8658787 L63.5180461,29.8658787 L65.6565111,27.4821857 C66.1150162,26.9739637 66.4684193,26.5642343 66.7160521,26.2531689 C66.9633508,25.9421035 67.2251866,25.4806441 67.4977164,24.8708462 C67.769912,24.2613909 67.905425,23.6509078 67.905425,23.0416238 C67.905425,21.94827 67.5186031,21.0015416 66.7451264,20.2010963 C65.9693105,19.3999657 64.9007464,19 63.5364264,19 C62.2969255,19 61.2746463,19.387804 60.4685864,20.1634121" id="Fill-4" fill="#0D0D0E"></path>
                <path d="M71.8072553,19.932605 C71.054261,20.5541135 70.62119,21.4182704 70.5080422,22.525589 L72.8052015,22.525589 C72.8307678,22.0153087 73.0092131,21.6172831 73.3414012,21.3309991 C73.6735893,21.0445439 74.0715931,20.902343 74.5371401,20.902343 C75.0389635,20.902343 75.4402495,21.0507042 75.7415163,21.3503357 C76.0450288,21.6477425 76.193762,22.0464525 76.193762,22.5433855 C76.193762,23.0161906 76.0502111,23.4178097 75.7612092,23.7477294 C75.4720345,24.0762801 75.0455278,24.2402132 74.4822073,24.2402132 L74.1410365,24.2402132 L74.1410365,25.994024 L74.4623417,25.994024 C75.1659309,25.994024 75.6877927,26.1868764 76.0343186,26.5727524 C76.3787716,26.9572594 76.553071,27.4126102 76.553071,27.9335001 C76.553071,28.468764 76.3787716,28.9318152 76.0343186,29.323167 C75.6877927,29.71469 75.1906334,29.9106226 74.5371401,29.9106226 C73.9485988,29.9106226 73.469405,29.750283 73.1061228,29.4261814 C72.7426679,29.1034487 72.5217274,28.673766 72.4474472,28.1396999 L70,28.1396999 C70.0993282,29.3084507 70.5705758,30.2432802 71.4114971,30.9464131 C72.2525912,31.6486903 73.2890595,32 74.5181382,32 C75.8113052,32 76.8821497,31.6461235 77.7282534,30.9368303 C78.5760845,30.2285639 79,29.2516388 79,28.0081085 C79,26.5534158 78.3592898,25.5653679 77.078906,25.042938 C78.0461036,24.5083586 78.5294434,23.6380413 78.5294434,22.4321574 C78.5294434,21.3867843 78.1732438,20.5541135 77.4642994,19.932605 C76.7550096,19.3112676 75.7990403,19 74.5934549,19 C73.4878887,19 72.560595,19.3112676 71.8072553,19.932605" id="Fill-6" fill="#0D0D0E"></path>
                <path d="M82.7409242,20.9024891 C81.5807423,22.1210199 81,23.6634769 81,25.5278067 C81,27.4927538 81.5859537,29.0896263 82.7573726,30.3208198 C83.8229355,31.4409577 85.2541087,32 87.0539866,32 C88.8177105,32 90.2190812,31.4525938 91.2603786,30.3584657 C92.4207233,29.1525977 93,27.4374827 93,25.210554 L93,25.0618525 L87.5687725,25.0618525 L87.5687725,27.150518 L90.6216598,27.150518 C90.4443102,27.9599058 90.0713714,28.5935554 89.5010518,29.0530071 C88.8753613,29.5501046 88.1011468,29.7989101 87.1787338,29.7989101 C86.1237565,29.7989101 85.249223,29.4450382 84.551062,28.7357544 C83.7690303,27.9405694 83.3791545,26.8890498 83.3791545,25.5842756 C83.3791545,24.2033539 83.775056,23.1090548 84.5697903,22.3018915 C85.2786999,21.5676245 86.1890615,21.2010899 87.3029925,21.2010899 C87.9166316,21.2010899 88.4737599,21.3309684 88.9709575,21.5929499 C89.5735224,21.9286833 90.0360318,22.4196206 90.3549026,23.0654197 L92.3611183,21.9286833 C91.7924272,20.8963289 91.0537151,20.1379342 90.142702,19.6524727 C89.3608333,19.2173198 88.4506345,19 87.4072199,19 C85.4796634,19 83.9248829,19.634163 82.7409242,20.9024891" id="Fill-8" fill="#0D0D0E"></path>
            </g>
        </g>
    </g>
</svg>
